<svg xmlns="http://www.w3.org/2000/svg" viewBox="0 0 80 80" width="80" height="80">
  <!-- Stitched heart icon - standalone for favicon / social -->
  <g transform="translate(8, 8)">
    <path d="M0,25 C0,10 6,-3 18,-3 C30,-3 36,10 36,25 C36,46 18,62 18,62 C18,62 0,46 0,25 Z"
          fill="none" stroke="#C6A96B" stroke-width="2.5" stroke-dasharray="3.5,3"/>

    <path d="M5,25 C5,14 9.5,3 18,3 C26.5,3 31,14 31,25 C31,41 18,54 18,54 C18,54 5,41 5,25 Z"
          fill="#A8B5A2" opacity="0.3"/>

    <!-- Tiny stitched detail inside -->
    <line x1="18" y1="10" x2="18" y2="34" stroke="#F8F4EE" stroke-width="0.8" stroke-dasharray="2,3" opacity="0.5"/>
    <line x1="8" y1="22" x2="28" y2="22" stroke="#F8F4EE" stroke-width="0.8" stroke-dasharray="2,3" opacity="0.5"/>
  </g>
</svg>