<svg xmlns="http://www.w3.org/2000/svg" viewBox="0 0 400 70" width="400" height="70">
  <defs>
    <style>
      @import url('https://fonts.googleapis.com/css2?family=Playfair+Display:wght@600;700&amp;family=Inter:wght@300;500&amp;display=swap');
    </style>
  </defs>
  <!-- Stitched heart icon -->
  <g transform="translate(0, 12)">
    <path d="M0,20 C0,8 5,-2 16,-2 C27,-2 32,8 32,20 C32,37 16,50 16,50 C16,50 0,37 0,20 Z"
          fill="none" stroke="#C6A96B" stroke-width="2" stroke-dasharray="3,3"/>
    <path d="M4,20 C4,11 8,3 16,3 C24,3 28,11 28,20 C28,33 16,44 16,44 C16,44 4,33 4,20 Z"
          fill="#A8B5A2" opacity="0.25"/>
  </g>

  <text x="46" y="22" font-family="'Playfair Display', Georgia, serif" font-size="18" font-weight="700"
        fill="#2B2B2B" letter-spacing="1">EMOTIONAL SUPPORT</text>
  <text x="46" y="44" font-family="'Playfair Display', Georgia, serif" font-size="14" font-weight="600"
        fill="#2B2B2B" letter-spacing="2.5">APPAREL</text>

  <text x="46" y="60" font-family="'Inter', Helvetica, sans-serif" font-size="8" font-weight="300"
        fill="#8FA9C7" letter-spacing="2">by K&amp;D</text>
</svg>